<?xml version="1.0" encoding="UTF-8" standalone="no"?>
<!-- Created with Inkscape (http://www.inkscape.org/) -->

<svg
   xmlns:dc="http://purl.org/dc/elements/1.1/"
   xmlns:cc="http://creativecommons.org/ns#"
   xmlns:rdf="http://www.w3.org/1999/02/22-rdf-syntax-ns#"
   xmlns:svg="http://www.w3.org/2000/svg"
   xmlns="http://www.w3.org/2000/svg"
   xmlns:sodipodi="http://sodipodi.sourceforge.net/DTD/sodipodi-0.dtd"
   xmlns:inkscape="http://www.inkscape.org/namespaces/inkscape"
   width="162.83543"
   height="162.83549"
   id="svg5172"
   version="1.1"
   inkscape:version="0.48.2 r9819"
   sodipodi:docname="New document 8">
  <defs
     id="defs5174" />
  <sodipodi:namedview
     id="base"
     pagecolor="#ffffff"
     bordercolor="#666666"
     borderopacity="1.0"
     inkscape:pageopacity="0.0"
     inkscape:pageshadow="2"
     inkscape:zoom="0.98994949"
     inkscape:cx="99.262048"
     inkscape:cy="92.192317"
     inkscape:document-units="px"
     inkscape:current-layer="layer1"
     showgrid="false"
     fit-margin-top="0"
     fit-margin-left="0"
     fit-margin-right="0"
     fit-margin-bottom="0"
     inkscape:window-width="477"
     inkscape:window-height="464"
     inkscape:window-x="22"
     inkscape:window-y="22"
     inkscape:window-maximized="0" />
  <metadata
     id="metadata5177">
    <rdf:RDF>
      <cc:Work
         rdf:about="">
        <dc:format>image/svg+xml</dc:format>
        <dc:type
           rdf:resource="http://purl.org/dc/dcmitype/StillImage" />
        <dc:title></dc:title>
      </cc:Work>
    </rdf:RDF>
  </metadata>
  <g
     inkscape:label="Layer 1"
     inkscape:groupmode="layer"
     id="layer1"
     transform="translate(-520.12812,-404.7539)">
    <path
       style="fill:#c2c2c2;fill-opacity:1;fill-rule:nonzero;stroke:none"
       d="m 528.29972,486.14172 c 0,-40.46853 32.77741,-73.24587 73.24593,-73.24587 40.49855,0 73.24587,32.77734 73.24587,73.24587 0,40.46852 -32.74732,73.30598 -73.24587,73.30598 -40.46852,0 -73.24593,-32.83746 -73.24593,-73.30598"
       id="path947"
       inkscape:connector-curvature="0" />
    <path
       style="fill:#d70023;fill-opacity:1;fill-rule:nonzero;stroke:none"
       d="m 625.34007,551.12572 c 2.9142,-4.50656 5.52801,-10.15474 5.52801,-16.01316 0,-22.50256 -28.24087,-15.11188 -28.7216,-27.57993 -0.15013,-3.60516 1.26184,-6.21898 2.88417,-8.11173 l 64.47326,0 c -4.71681,23.94468 -21.69136,43.50295 -44.16384,51.70482 m -91.72258,-51.70482 58.79499,0 c -2.88417,3.75548 -6.36924,9.43368 -6.51949,15.32219 -0.11998,6.24901 6.6997,9.76409 6.91001,19.378 0.27073,8.98298 -6.03876,17.30502 -21.24072,14.39082 -19.40809,-9.34348 -33.7388,-27.36956 -37.94479,-49.09101 m -0.30088,-24.93603 136.42726,0 c 0.23996,1.1717 0.30088,2.37342 0.45101,3.54512 -1.20173,-0.15014 -2.73398,-0.27012 -4.83704,-0.15014 -7.66103,0.48055 -11.47657,7.6611 -11.47657,7.6611 0,0 -4.32629,-4.80695 -9.58387,-4.32623 -5.25753,0.4504 -7.66104,4.53654 -10.51518,9.13318 -3.84556,-3.87559 -9.13324,-6.72973 -12.94871,-6.72973 -3.81548,0 -9.82421,6.72973 -9.82421,6.72973 0,0 -4.53659,-5.52801 -9.79418,-5.52801 -5.25765,0 -9.6139,5.73832 -9.6139,5.73832 0,0 -4.5366,-6.72973 -9.52376,-6.94004 -5.28762,-0.21043 -7.90143,2.13309 -11.29629,6.21898 -2.58379,-2.40351 -4.92718,-7.21046 -10.72555,-7.63107 -6.21904,-0.54084 -6.00867,1.41209 -8.86282,5.01726 -2.764,-2.79403 -5.76834,-6.94004 -9.31351,-7.93146 -2.25319,-0.57099 -6.36917,-0.39071 -9.07306,-0.21043 0.11998,-1.56222 0.30087,-3.06438 0.51069,-4.59664 m 68.22873,-57.53322 c 29.9232,0 55.40007,19.0175 65.07402,45.60595 -5.1672,-0.87131 -14.12016,-3.27475 -26.16759,-10.03451 -18.98747,-10.66543 -17.69555,-10.99591 -25.38667,-17.24497 -7.66109,-6.21898 -17.72569,-7.6611 -25.83743,0 -8.59233,8.17184 -12.43789,10.9959 -25.35664,17.72563 -11.50659,5.94862 -21.81153,8.5924 -27.45964,9.73407 9.6139,-26.70862 35.15076,-45.78617 65.13414,-45.78617 m 0,-12.19769 c -44.94495,0 -81.41772,36.41266 -81.41772,81.3877 0,44.97503 36.47277,81.4478 81.41772,81.4478 44.91491,0 81.41771,-36.47277 81.41771,-81.4478 0,-44.97504 -36.5028,-81.3877 -81.41771,-81.3877"
       id="path949"
       inkscape:connector-curvature="0" />
  </g>
</svg>
