<?xml version="1.0" encoding="utf-8"?>
<!-- Generator: Adobe Illustrator 21.1.0, SVG Export Plug-In . SVG Version: 6.00 Build 0)  -->
<svg version="1.1" id="圖層_1" xmlns="http://www.w3.org/2000/svg" xmlns:xlink="http://www.w3.org/1999/xlink" x="0px" y="0px"
	 viewBox="0 0 200.5 312.4" style="enable-background:new 0 0 200.5 312.4;" xml:space="preserve">
<style type="text/css">
	.st0{fill:#FFFFFF;}
	.st1{fill:#996600;}
	.st2{fill:#003366;}
</style>
<rect class="st0" width="200.5" height="312.4"/>
<g>
	<g>
		<path class="st1" d="M151.8,299.1l-33.5-55.7c0,0-1-1.3-1-3.4v-1.3v-2.8v-99.1h-12.7v103.4v3.2c1,1.1,22.1,36.9,22.1,36.9H74.6
			c0,0,21-35.8,22.1-36.9v-3.2V136.8H84V236v2.8v1.3c0,2.1-1,3.4-1,3.4l-33.5,55.7L151.8,299.1L151.8,299.1z"/>
	</g>
	<g>
		<path class="st1" d="M141.4,64.4c0,0,6.3-26-16.1-43.1c0,0-9-8.1-26-8.1c-15.3,0-24.2,8.1-24.2,8.1C54.3,35.8,59.7,64.4,59.7,64.4
			H141.4z"/>
		<path class="st1" d="M62.2,71.7H139c0.6-1.5,1.1-2.9,1.6-4.5H60.6C61.1,68.7,61.6,70.2,62.2,71.7z"/>
		<path class="st1" d="M137.8,74.3H63.5c0.7,1.6,1.7,3,2.6,4.5h69.3C136.2,77.4,137.1,75.9,137.8,74.3z"/>
		<path class="st1" d="M71,85.2h59.2c1.1-1.1,2.1-2.3,3.1-3.6H67.9C68.9,82.8,69.9,84,71,85.2z"/>
		<path class="st1" d="M77.4,90.5h46.4c1.2-0.8,2.4-1.7,3.5-2.7H73.9C75,88.7,76.2,89.7,77.4,90.5z"/>
		<path class="st1" d="M83.8,94.1c5.1,2.3,10.8,3.6,16.8,3.6s11.6-1.3,16.8-3.6H83.8z"/>
	</g>
	<path class="st2" d="M180.3,99.6h-62.8c0,0-5.9,0-10.5,3.2c-3.6,2.5-6.1,8.2-6.3,8.4l0,0c-0.1-0.3-2.7-6-6.3-8.4
		c-4.7-3.2-10.5-3.2-10.5-3.2H21L8.5,119.8H66c0,0,1.7,0,2.8,0.2c1.7,0.3,4.7,1.2,7.8,3.4c4.2,3.1,5.5,4.7,6.5,5.7
		c0.6,0.6,1.8,2.4,1.8,2.4H99h1.6l0,0h4.9h10.8c0,0,1.4-1.8,1.8-2.4c1-1.1,2.2-2.7,6.5-5.7c3.1-2.2,6.1-3.1,7.8-3.4
		c1-0.2,2.8-0.2,2.8-0.2h57.6L180.3,99.6z"/>
	<g>
		<g>
			<path class="st2" d="M14.8,126v94.2c0,0,0,1,0,1.3c0,1,0.1,2,0.2,2.8c1,10.1,4.2,17.6,10.1,27.4c9.3,15.4,25.9,26.1,25.9,26.1
				l7.9-12.6c0,0-10.7-5.7-19.3-18.8c-1.7-2.7-3.5-5-4.6-7.5c-1.1-2.3-1.9-4.2-2.6-6.1c-0.5-1.5-0.9-2.8-1.2-3.9
				c-0.5-1.7-0.6-3.1-0.7-4.8c0-0.6-0.1-2.9-0.1-2.9v-0.5V126H14.8z"/>
			<path class="st2" d="M38.7,126v95.2c0,0,0,0.4,0.1,0.8c0,0.5,0.1,1.2,0.2,1.7c0,0.4,0.1,0.7,0.2,1c0.3,1.5,0.6,2.8,1.3,4.8
				c1.1,3.2,2.9,7.1,5.7,11.6c7.1,11.4,17.2,16.6,17.2,16.6l7.9-12.3c0,0-2.6-1.5-5.8-4.5c-2.1-2-4.6-4.7-6.8-7.9
				c-2.1-3.2-3.4-6.5-4.1-9c-0.6-2-0.7-3.7-0.7-4.8c0-0.8,0-1.4,0-1.4V126H38.7z"/>
		</g>
		<g>
			<path class="st2" d="M186.6,126v94.2c0,0,0,1,0,1.3c0,1-0.1,2-0.2,2.8c-1,10.1-4.2,17.6-10.1,27.4c-9.3,15.4-25.9,26.1-25.9,26.1
				l-7.9-12.6c0,0,10.7-5.7,19.3-18.8c1.7-2.7,3.5-5,4.6-7.5c1.1-2.3,1.9-4.2,2.6-6.1c0.5-1.5,0.9-2.8,1.2-3.9
				c0.5-1.7,0.6-3.1,0.7-4.8c0-0.6,0.1-2.9,0.1-2.9v-0.5V126H186.6z"/>
			<path class="st2" d="M162.6,126v95.2c0,0,0,0.4-0.1,0.8c0,0.5-0.1,1.2-0.2,1.7c0,0.4-0.1,0.7-0.2,1c-0.3,1.5-0.6,2.8-1.3,4.8
				c-1.1,3.2-2.9,7.1-5.7,11.6c-7.1,11.4-17.2,16.6-17.2,16.6l-7.9-12.3c0,0,2.6-1.5,5.8-4.5c2.1-2,4.6-4.7,6.8-7.9
				c2.1-3.2,3.4-6.5,4.1-9c0.6-2,0.7-3.7,0.7-4.8c0-0.8,0-1.4,0-1.4V126H162.6z"/>
		</g>
	</g>
</g>
</svg>
